# Tiled2Unity generated file. Do not modify by hand.
# Wavefront file for 'Town_Test_mesh_0005.obj'

# Vertices (Count = 576)
v -23 -53 0
v -24 -53 0
v -24 -52 0
v -23 -52 0
v -22 -53 0
v -23 -53 0
v -23 -52 0
v -22 -52 0
v -21 -53 0
v -22 -53 0
v -22 -52 0
v -21 -52 0
v -20 -53 0
v -21 -53 0
v -21 -52 0
v -20 -52 0
v -19 -53 0
v -20 -53 0
v -20 -52 0
v -19 -52 0
v -18 -53 0
v -19 -53 0
v -19 -52 0
v -18 -52 0
v -17 -53 0
v -18 -53 0
v -18 -52 0
v -17 -52 0
v -16 -53 0
v -17 -53 0
v -17 -52 0
v -16 -52 0
v -15 -53 0
v -16 -53 0
v -16 -52 0
v -15 -52 0
v -14 -53 0
v -15 -53 0
v -15 -52 0
v -14 -52 0
v -13 -53 0
v -14 -53 0
v -14 -52 0
v -13 -52 0
v -12 -53 0
v -13 -53 0
v -13 -52 0
v -12 -52 0
v -11 -53 0
v -12 -53 0
v -12 -52 0
v -11 -52 0
v -10 -53 0
v -11 -53 0
v -11 -52 0
v -10 -52 0
v -9 -53 0
v -10 -53 0
v -10 -52 0
v -9 -52 0
v -8 -53 0
v -9 -53 0
v -9 -52 0
v -8 -52 0
v -7 -53 0
v -8 -53 0
v -8 -52 0
v -7 -52 0
v -6 -53 0
v -7 -53 0
v -7 -52 0
v -6 -52 0
v -5 -53 0
v -6 -53 0
v -6 -52 0
v -5 -52 0
v -4 -53 0
v -5 -53 0
v -5 -52 0
v -4 -52 0
v -3 -53 0
v -4 -53 0
v -4 -52 0
v -3 -52 0
v -2 -53 0
v -3 -53 0
v -3 -52 0
v -2 -52 0
v -1 -53 0
v -2 -53 0
v -2 -52 0
v -1 -52 0
v -23 -54 0
v -24 -54 0
v -24 -53 0
v -23 -53 0
v -22 -54 0
v -23 -54 0
v -23 -53 0
v -22 -53 0
v -21 -54 0
v -22 -54 0
v -22 -53 0
v -21 -53 0
v -20 -54 0
v -21 -54 0
v -21 -53 0
v -20 -53 0
v -19 -54 0
v -20 -54 0
v -20 -53 0
v -19 -53 0
v -18 -54 0
v -19 -54 0
v -19 -53 0
v -18 -53 0
v -17 -54 0
v -18 -54 0
v -18 -53 0
v -17 -53 0
v -16 -54 0
v -17 -54 0
v -17 -53 0
v -16 -53 0
v -15 -54 0
v -16 -54 0
v -16 -53 0
v -15 -53 0
v -14 -54 0
v -15 -54 0
v -15 -53 0
v -14 -53 0
v -13 -54 0
v -14 -54 0
v -14 -53 0
v -13 -53 0
v -12 -54 0
v -13 -54 0
v -13 -53 0
v -12 -53 0
v -11 -54 0
v -12 -54 0
v -12 -53 0
v -11 -53 0
v -10 -54 0
v -11 -54 0
v -11 -53 0
v -10 -53 0
v -9 -54 0
v -10 -54 0
v -10 -53 0
v -9 -53 0
v -8 -54 0
v -9 -54 0
v -9 -53 0
v -8 -53 0
v -7 -54 0
v -8 -54 0
v -8 -53 0
v -7 -53 0
v -6 -54 0
v -7 -54 0
v -7 -53 0
v -6 -53 0
v -5 -54 0
v -6 -54 0
v -6 -53 0
v -5 -53 0
v -4 -54 0
v -5 -54 0
v -5 -53 0
v -4 -53 0
v -3 -54 0
v -4 -54 0
v -4 -53 0
v -3 -53 0
v -2 -54 0
v -3 -54 0
v -3 -53 0
v -2 -53 0
v -1 -54 0
v -2 -54 0
v -2 -53 0
v -1 -53 0
v -23 -55 0
v -24 -55 0
v -24 -54 0
v -23 -54 0
v -22 -55 0
v -23 -55 0
v -23 -54 0
v -22 -54 0
v -2 -55 0
v -3 -55 0
v -3 -54 0
v -2 -54 0
v -1 -55 0
v -2 -55 0
v -2 -54 0
v -1 -54 0
v -23 -56 0
v -24 -56 0
v -24 -55 0
v -23 -55 0
v -22 -56 0
v -23 -56 0
v -23 -55 0
v -22 -55 0
v -2 -56 0
v -3 -56 0
v -3 -55 0
v -2 -55 0
v -1 -56 0
v -2 -56 0
v -2 -55 0
v -1 -55 0
v -23 -57 0
v -24 -57 0
v -24 -56 0
v -23 -56 0
v -22 -57 0
v -23 -57 0
v -23 -56 0
v -22 -56 0
v -2 -57 0
v -3 -57 0
v -3 -56 0
v -2 -56 0
v -1 -57 0
v -2 -57 0
v -2 -56 0
v -1 -56 0
v -23 -58 0
v -24 -58 0
v -24 -57 0
v -23 -57 0
v -22 -58 0
v -23 -58 0
v -23 -57 0
v -22 -57 0
v -2 -58 0
v -3 -58 0
v -3 -57 0
v -2 -57 0
v -1 -58 0
v -2 -58 0
v -2 -57 0
v -1 -57 0
v -23 -59 0
v -24 -59 0
v -24 -58 0
v -23 -58 0
v -22 -59 0
v -23 -59 0
v -23 -58 0
v -22 -58 0
v -2 -59 0
v -3 -59 0
v -3 -58 0
v -2 -58 0
v -1 -59 0
v -2 -59 0
v -2 -58 0
v -1 -58 0
v -23 -60 0
v -24 -60 0
v -24 -59 0
v -23 -59 0
v -22 -60 0
v -23 -60 0
v -23 -59 0
v -22 -59 0
v -2 -60 0
v -3 -60 0
v -3 -59 0
v -2 -59 0
v -1 -60 0
v -2 -60 0
v -2 -59 0
v -1 -59 0
v -23 -61 0
v -24 -61 0
v -24 -60 0
v -23 -60 0
v -22 -61 0
v -23 -61 0
v -23 -60 0
v -22 -60 0
v -2 -61 0
v -3 -61 0
v -3 -60 0
v -2 -60 0
v -1 -61 0
v -2 -61 0
v -2 -60 0
v -1 -60 0
v -23 -62 0
v -24 -62 0
v -24 -61 0
v -23 -61 0
v -22 -62 0
v -23 -62 0
v -23 -61 0
v -22 -61 0
v -14 -62 0
v -15 -62 0
v -15 -61 0
v -14 -61 0
v -13 -62 0
v -14 -62 0
v -14 -61 0
v -13 -61 0
v -12 -62 0
v -13 -62 0
v -13 -61 0
v -12 -61 0
v -11 -62 0
v -12 -62 0
v -12 -61 0
v -11 -61 0
v -10 -62 0
v -11 -62 0
v -11 -61 0
v -10 -61 0
v -2 -62 0
v -3 -62 0
v -3 -61 0
v -2 -61 0
v -1 -62 0
v -2 -62 0
v -2 -61 0
v -1 -61 0
v -23 -63 0
v -24 -63 0
v -24 -62 0
v -23 -62 0
v -22 -63 0
v -23 -63 0
v -23 -62 0
v -22 -62 0
v -14 -63 0
v -15 -63 0
v -15 -62 0
v -14 -62 0
v -10 -63 0
v -11 -63 0
v -11 -62 0
v -10 -62 0
v -2 -63 0
v -3 -63 0
v -3 -62 0
v -2 -62 0
v -1 -63 0
v -2 -63 0
v -2 -62 0
v -1 -62 0
v -14 -64 0
v -15 -64 0
v -15 -63 0
v -14 -63 0
v -10 -64 0
v -11 -64 0
v -11 -63 0
v -10 -63 0
v -2 -64 0
v -3 -64 0
v -3 -63 0
v -2 -63 0
v -1 -64 0
v -2 -64 0
v -2 -63 0
v -1 -63 0
v -14 -65 0
v -15 -65 0
v -15 -64 0
v -14 -64 0
v -10 -65 0
v -11 -65 0
v -11 -64 0
v -10 -64 0
v -2 -65 0
v -3 -65 0
v -3 -64 0
v -2 -64 0
v -1 -65 0
v -2 -65 0
v -2 -64 0
v -1 -64 0
v -14 -66 0
v -15 -66 0
v -15 -65 0
v -14 -65 0
v -10 -66 0
v -11 -66 0
v -11 -65 0
v -10 -65 0
v -2 -66 0
v -3 -66 0
v -3 -65 0
v -2 -65 0
v -1 -66 0
v -2 -66 0
v -2 -65 0
v -1 -65 0
v -23 -67 0
v -24 -67 0
v -24 -66 0
v -23 -66 0
v -22 -67 0
v -23 -67 0
v -23 -66 0
v -22 -66 0
v -14 -67 0
v -15 -67 0
v -15 -66 0
v -14 -66 0
v -10 -67 0
v -11 -67 0
v -11 -66 0
v -10 -66 0
v -2 -67 0
v -3 -67 0
v -3 -66 0
v -2 -66 0
v -1 -67 0
v -2 -67 0
v -2 -66 0
v -1 -66 0
v -23 -68 0
v -24 -68 0
v -24 -67 0
v -23 -67 0
v -22 -68 0
v -23 -68 0
v -23 -67 0
v -22 -67 0
v -14 -68 0
v -15 -68 0
v -15 -67 0
v -14 -67 0
v -13 -68 0
v -14 -68 0
v -14 -67 0
v -13 -67 0
v -12 -68 0
v -13 -68 0
v -13 -67 0
v -12 -67 0
v -11 -68 0
v -12 -68 0
v -12 -67 0
v -11 -67 0
v -10 -68 0
v -11 -68 0
v -11 -67 0
v -10 -67 0
v -2 -68 0
v -3 -68 0
v -3 -67 0
v -2 -67 0
v -1 -68 0
v -2 -68 0
v -2 -67 0
v -1 -67 0
v -23 -69 0
v -24 -69 0
v -24 -68 0
v -23 -68 0
v -22 -69 0
v -23 -69 0
v -23 -68 0
v -22 -68 0
v -2 -69 0
v -3 -69 0
v -3 -68 0
v -2 -68 0
v -1 -69 0
v -2 -69 0
v -2 -68 0
v -1 -68 0
v -23 -70 0
v -24 -70 0
v -24 -69 0
v -23 -69 0
v -22 -70 0
v -23 -70 0
v -23 -69 0
v -22 -69 0
v -2 -70 0
v -3 -70 0
v -3 -69 0
v -2 -69 0
v -1 -70 0
v -2 -70 0
v -2 -69 0
v -1 -69 0
v -23 -71 0
v -24 -71 0
v -24 -70 0
v -23 -70 0
v -22 -71 0
v -23 -71 0
v -23 -70 0
v -22 -70 0
v -2 -71 0
v -3 -71 0
v -3 -70 0
v -2 -70 0
v -1 -71 0
v -2 -71 0
v -2 -70 0
v -1 -70 0
v -23 -72 0
v -24 -72 0
v -24 -71 0
v -23 -71 0
v -22 -72 0
v -23 -72 0
v -23 -71 0
v -22 -71 0
v -2 -72 0
v -3 -72 0
v -3 -71 0
v -2 -71 0
v -1 -72 0
v -2 -72 0
v -2 -71 0
v -1 -71 0
v -23 -73 0
v -24 -73 0
v -24 -72 0
v -23 -72 0
v -22 -73 0
v -23 -73 0
v -23 -72 0
v -22 -72 0
v -2 -73 0
v -3 -73 0
v -3 -72 0
v -2 -72 0
v -1 -73 0
v -2 -73 0
v -2 -72 0
v -1 -72 0
v -23 -74 0
v -24 -74 0
v -24 -73 0
v -23 -73 0
v -22 -74 0
v -23 -74 0
v -23 -73 0
v -22 -73 0
v -2 -74 0
v -3 -74 0
v -3 -73 0
v -2 -73 0
v -1 -74 0
v -2 -74 0
v -2 -73 0
v -1 -73 0
v -23 -75 0
v -24 -75 0
v -24 -74 0
v -23 -74 0
v -22 -75 0
v -23 -75 0
v -23 -74 0
v -22 -74 0
v -2 -75 0
v -3 -75 0
v -3 -74 0
v -2 -74 0
v -1 -75 0
v -2 -75 0
v -2 -74 0
v -1 -74 0

# Texture cooridinates (Count = 44)
vt 0.4214876 0.6140684
vt 0.4380165 0.6140684
vt 0.4380165 0.6444867
vt 0.4214876 0.6444867
vt 0.4917355 0.6787072
vt 0.5082645 0.6787072
vt 0.5082645 0.7091255
vt 0.4917355 0.7091255
vt 0.4039256 0.6787072
vt 0.4204545 0.6787072
vt 0.4204545 0.7091255
vt 0.4039256 0.7091255
vt 0.4214876 0.6463878
vt 0.4380165 0.6463878
vt 0.4380165 0.6768061
vt 0.4214876 0.6768061
vt 0.5268595 0.6787072
vt 0.5433884 0.6787072
vt 0.5433884 0.7091255
vt 0.5268595 0.7091255
vt 0.3336777 0.6787072
vt 0.3502066 0.6787072
vt 0.3502066 0.7091255
vt 0.3336777 0.7091255
vt 0.5092975 0.6787072
vt 0.5258265 0.6787072
vt 0.5258265 0.7091255
vt 0.5092975 0.7091255
vt 0.4214876 0.6787072
vt 0.4380165 0.6787072
vt 0.4380165 0.7091255
vt 0.4214876 0.7091255
vt 0.3512397 0.6787072
vt 0.3677686 0.6787072
vt 0.3677686 0.7091255
vt 0.3512397 0.7091255
vt 0.3688017 0.6787072
vt 0.3853306 0.6787072
vt 0.3853306 0.7091255
vt 0.3688017 0.7091255
vt 0.05268595 0.4524715
vt 0.06921487 0.4524715
vt 0.06921487 0.4828897
vt 0.05268595 0.4828897

# Normal
vn 0 0 -1

# Mesh description
g Town_Test_mesh_0005

# Faces
f 1/1/1 2/2/1 3/3/1 4/4/1
f 5/5/1 6/6/1 7/7/1 8/8/1
f 9/9/1 10/10/1 11/11/1 12/12/1
f 13/13/1 14/14/1 15/15/1 16/16/1
f 17/17/1 18/18/1 19/19/1 20/20/1
f 21/17/1 22/18/1 23/19/1 24/20/1
f 25/21/1 26/22/1 27/23/1 28/24/1
f 29/13/1 30/14/1 31/15/1 32/16/1
f 33/1/1 34/2/1 35/3/1 36/4/1
f 37/9/1 38/10/1 39/11/1 40/12/1
f 41/25/1 42/26/1 43/27/1 44/28/1
f 45/17/1 46/18/1 47/19/1 48/20/1
f 49/9/1 50/10/1 51/11/1 52/12/1
f 53/17/1 54/18/1 55/19/1 56/20/1
f 57/17/1 58/18/1 59/19/1 60/20/1
f 61/13/1 62/14/1 63/15/1 64/16/1
f 65/13/1 66/14/1 67/15/1 68/16/1
f 69/21/1 70/22/1 71/23/1 72/24/1
f 73/13/1 74/14/1 75/15/1 76/16/1
f 77/1/1 78/2/1 79/3/1 80/4/1
f 81/13/1 82/14/1 83/15/1 84/16/1
f 85/21/1 86/22/1 87/23/1 88/24/1
f 89/13/1 90/14/1 91/15/1 92/16/1
f 93/17/1 94/18/1 95/19/1 96/20/1
f 97/1/1 98/2/1 99/3/1 100/4/1
f 101/29/1 102/30/1 103/31/1 104/32/1
f 105/25/1 106/26/1 107/27/1 108/28/1
f 109/29/1 110/30/1 111/31/1 112/32/1
f 113/33/1 114/34/1 115/35/1 116/36/1
f 117/13/1 118/14/1 119/15/1 120/16/1
f 121/29/1 122/30/1 123/31/1 124/32/1
f 125/25/1 126/26/1 127/27/1 128/28/1
f 129/33/1 130/34/1 131/35/1 132/36/1
f 133/5/1 134/6/1 135/7/1 136/8/1
f 137/1/1 138/2/1 139/3/1 140/4/1
f 141/9/1 142/10/1 143/11/1 144/12/1
f 145/25/1 146/26/1 147/27/1 148/28/1
f 149/17/1 150/18/1 151/19/1 152/20/1
f 153/37/1 154/38/1 155/39/1 156/40/1
f 157/9/1 158/10/1 159/11/1 160/12/1
f 161/1/1 162/2/1 163/3/1 164/4/1
f 165/25/1 166/26/1 167/27/1 168/28/1
f 169/13/1 170/14/1 171/15/1 172/16/1
f 173/37/1 174/38/1 175/39/1 176/40/1
f 177/13/1 178/14/1 179/15/1 180/16/1
f 181/5/1 182/6/1 183/7/1 184/8/1
f 185/13/1 186/14/1 187/15/1 188/16/1
f 189/17/1 190/18/1 191/19/1 192/20/1
f 193/1/1 194/2/1 195/3/1 196/4/1
f 197/5/1 198/6/1 199/7/1 200/8/1
f 201/9/1 202/10/1 203/11/1 204/12/1
f 205/29/1 206/30/1 207/31/1 208/32/1
f 209/21/1 210/22/1 211/23/1 212/24/1
f 213/21/1 214/22/1 215/23/1 216/24/1
f 217/5/1 218/6/1 219/7/1 220/8/1
f 221/13/1 222/14/1 223/15/1 224/16/1
f 225/29/1 226/30/1 227/31/1 228/32/1
f 229/17/1 230/18/1 231/19/1 232/20/1
f 233/25/1 234/26/1 235/27/1 236/28/1
f 237/29/1 238/30/1 239/31/1 240/32/1
f 241/25/1 242/26/1 243/27/1 244/28/1
f 245/21/1 246/22/1 247/23/1 248/24/1
f 249/29/1 250/30/1 251/31/1 252/32/1
f 253/13/1 254/14/1 255/15/1 256/16/1
f 257/29/1 258/30/1 259/31/1 260/32/1
f 261/21/1 262/22/1 263/23/1 264/24/1
f 265/5/1 266/6/1 267/7/1 268/8/1
f 269/33/1 270/34/1 271/35/1 272/36/1
f 273/37/1 274/38/1 275/39/1 276/40/1
f 277/13/1 278/14/1 279/15/1 280/16/1
f 281/1/1 282/2/1 283/3/1 284/4/1
f 285/21/1 286/22/1 287/23/1 288/24/1
f 289/33/1 290/34/1 291/35/1 292/36/1
f 293/37/1 294/38/1 295/39/1 296/40/1
f 297/25/1 298/26/1 299/27/1 300/28/1
f 301/33/1 302/34/1 303/35/1 304/36/1
f 305/41/1 306/42/1 307/43/1 308/44/1
f 309/41/1 310/42/1 311/43/1 312/44/1
f 313/41/1 314/42/1 315/43/1 316/44/1
f 317/41/1 318/42/1 319/43/1 320/44/1
f 321/41/1 322/42/1 323/43/1 324/44/1
f 325/17/1 326/18/1 327/19/1 328/20/1
f 329/9/1 330/10/1 331/11/1 332/12/1
f 333/21/1 334/22/1 335/23/1 336/24/1
f 337/33/1 338/34/1 339/35/1 340/36/1
f 341/41/1 342/42/1 343/43/1 344/44/1
f 345/41/1 346/42/1 347/43/1 348/44/1
f 349/37/1 350/38/1 351/39/1 352/40/1
f 353/37/1 354/38/1 355/39/1 356/40/1
f 357/41/1 358/42/1 359/43/1 360/44/1
f 361/41/1 362/42/1 363/43/1 364/44/1
f 365/17/1 366/18/1 367/19/1 368/20/1
f 369/29/1 370/30/1 371/31/1 372/32/1
f 373/41/1 374/42/1 375/43/1 376/44/1
f 377/41/1 378/42/1 379/43/1 380/44/1
f 381/17/1 382/18/1 383/19/1 384/20/1
f 385/1/1 386/2/1 387/3/1 388/4/1
f 389/41/1 390/42/1 391/43/1 392/44/1
f 393/41/1 394/42/1 395/43/1 396/44/1
f 397/9/1 398/10/1 399/11/1 400/12/1
f 401/13/1 402/14/1 403/15/1 404/16/1
f 405/17/1 406/18/1 407/19/1 408/20/1
f 409/13/1 410/14/1 411/15/1 412/16/1
f 413/41/1 414/42/1 415/43/1 416/44/1
f 417/41/1 418/42/1 419/43/1 420/44/1
f 421/37/1 422/38/1 423/39/1 424/40/1
f 425/37/1 426/38/1 427/39/1 428/40/1
f 429/25/1 430/26/1 431/27/1 432/28/1
f 433/29/1 434/30/1 435/31/1 436/32/1
f 437/41/1 438/42/1 439/43/1 440/44/1
f 441/41/1 442/42/1 443/43/1 444/44/1
f 445/41/1 446/42/1 447/43/1 448/44/1
f 449/41/1 450/42/1 451/43/1 452/44/1
f 453/41/1 454/42/1 455/43/1 456/44/1
f 457/13/1 458/14/1 459/15/1 460/16/1
f 461/25/1 462/26/1 463/27/1 464/28/1
f 465/5/1 466/6/1 467/7/1 468/8/1
f 469/13/1 470/14/1 471/15/1 472/16/1
f 473/29/1 474/30/1 475/31/1 476/32/1
f 477/25/1 478/26/1 479/27/1 480/28/1
f 481/9/1 482/10/1 483/11/1 484/12/1
f 485/33/1 486/34/1 487/35/1 488/36/1
f 489/33/1 490/34/1 491/35/1 492/36/1
f 493/29/1 494/30/1 495/31/1 496/32/1
f 497/9/1 498/10/1 499/11/1 500/12/1
f 501/37/1 502/38/1 503/39/1 504/40/1
f 505/1/1 506/2/1 507/3/1 508/4/1
f 509/5/1 510/6/1 511/7/1 512/8/1
f 513/37/1 514/38/1 515/39/1 516/40/1
f 517/25/1 518/26/1 519/27/1 520/28/1
f 521/17/1 522/18/1 523/19/1 524/20/1
f 525/9/1 526/10/1 527/11/1 528/12/1
f 529/13/1 530/14/1 531/15/1 532/16/1
f 533/21/1 534/22/1 535/23/1 536/24/1
f 537/13/1 538/14/1 539/15/1 540/16/1
f 541/21/1 542/22/1 543/23/1 544/24/1
f 545/25/1 546/26/1 547/27/1 548/28/1
f 549/1/1 550/2/1 551/3/1 552/4/1
f 553/9/1 554/10/1 555/11/1 556/12/1
f 557/37/1 558/38/1 559/39/1 560/40/1
f 561/17/1 562/18/1 563/19/1 564/20/1
f 565/29/1 566/30/1 567/31/1 568/32/1
f 569/9/1 570/10/1 571/11/1 572/12/1
f 573/13/1 574/14/1 575/15/1 576/16/1

