# Tiled2Unity generated file. Do not modify by hand.
# Wavefront file for 'Town_Test_mesh_0006.obj'

# Vertices (Count = 452)
v -24 -52 0
v -25 -52 0
v -25 -51 0
v -24 -51 0
v -23 -52 0
v -24 -52 0
v -24 -51 0
v -23 -51 0
v -22 -52 0
v -23 -52 0
v -23 -51 0
v -22 -51 0
v -21 -52 0
v -22 -52 0
v -22 -51 0
v -21 -51 0
v -20 -52 0
v -21 -52 0
v -21 -51 0
v -20 -51 0
v -19 -52 0
v -20 -52 0
v -20 -51 0
v -19 -51 0
v -18 -52 0
v -19 -52 0
v -19 -51 0
v -18 -51 0
v -17 -52 0
v -18 -52 0
v -18 -51 0
v -17 -51 0
v -16 -52 0
v -17 -52 0
v -17 -51 0
v -16 -51 0
v -15 -52 0
v -16 -52 0
v -16 -51 0
v -15 -51 0
v -14 -52 0
v -15 -52 0
v -15 -51 0
v -14 -51 0
v -13 -52 0
v -14 -52 0
v -14 -51 0
v -13 -51 0
v -12 -52 0
v -13 -52 0
v -13 -51 0
v -12 -51 0
v -11 -52 0
v -12 -52 0
v -12 -51 0
v -11 -51 0
v -10 -52 0
v -11 -52 0
v -11 -51 0
v -10 -51 0
v -9 -52 0
v -10 -52 0
v -10 -51 0
v -9 -51 0
v -8 -52 0
v -9 -52 0
v -9 -51 0
v -8 -51 0
v -7 -52 0
v -8 -52 0
v -8 -51 0
v -7 -51 0
v -6 -52 0
v -7 -52 0
v -7 -51 0
v -6 -51 0
v -5 -52 0
v -6 -52 0
v -6 -51 0
v -5 -51 0
v -4 -52 0
v -5 -52 0
v -5 -51 0
v -4 -51 0
v -3 -52 0
v -4 -52 0
v -4 -51 0
v -3 -51 0
v -2 -52 0
v -3 -52 0
v -3 -51 0
v -2 -51 0
v -1 -52 0
v -2 -52 0
v -2 -51 0
v -1 -51 0
v 0 -52 0
v -1 -52 0
v -1 -51 0
v 0 -51 0
v -24 -53 0
v -25 -53 0
v -25 -52 0
v -24 -52 0
v 0 -53 0
v -1 -53 0
v -1 -52 0
v 0 -52 0
v -24 -54 0
v -25 -54 0
v -25 -53 0
v -24 -53 0
v 0 -54 0
v -1 -54 0
v -1 -53 0
v 0 -53 0
v -24 -55 0
v -25 -55 0
v -25 -54 0
v -24 -54 0
v 0 -55 0
v -1 -55 0
v -1 -54 0
v 0 -54 0
v -24 -56 0
v -25 -56 0
v -25 -55 0
v -24 -55 0
v 0 -56 0
v -1 -56 0
v -1 -55 0
v 0 -55 0
v -27 -57 0
v -28 -57 0
v -28 -56 0
v -27 -56 0
v -26 -57 0
v -27 -57 0
v -27 -56 0
v -26 -56 0
v -25 -57 0
v -26 -57 0
v -26 -56 0
v -25 -56 0
v -24 -57 0
v -25 -57 0
v -25 -56 0
v -24 -56 0
v 0 -57 0
v -1 -57 0
v -1 -56 0
v 0 -56 0
v -27 -58 0
v -28 -58 0
v -28 -57 0
v -27 -57 0
v 0 -58 0
v -1 -58 0
v -1 -57 0
v 0 -57 0
v -30 -59 0
v -31 -59 0
v -31 -58 0
v -30 -58 0
v -29 -59 0
v -30 -59 0
v -30 -58 0
v -29 -58 0
v -28 -59 0
v -29 -59 0
v -29 -58 0
v -28 -58 0
v -27 -59 0
v -28 -59 0
v -28 -58 0
v -27 -58 0
v 0 -59 0
v -1 -59 0
v -1 -58 0
v 0 -58 0
v -30 -60 0
v -31 -60 0
v -31 -59 0
v -30 -59 0
v -29 -60 0
v -30 -60 0
v -30 -59 0
v -29 -59 0
v -28 -60 0
v -29 -60 0
v -29 -59 0
v -28 -59 0
v -27 -60 0
v -28 -60 0
v -28 -59 0
v -27 -59 0
v 0 -60 0
v -1 -60 0
v -1 -59 0
v 0 -59 0
v -30 -61 0
v -31 -61 0
v -31 -60 0
v -30 -60 0
v -29 -61 0
v -30 -61 0
v -30 -60 0
v -29 -60 0
v -28 -61 0
v -29 -61 0
v -29 -60 0
v -28 -60 0
v -27 -61 0
v -28 -61 0
v -28 -60 0
v -27 -60 0
v 0 -61 0
v -1 -61 0
v -1 -60 0
v 0 -60 0
v -30 -62 0
v -31 -62 0
v -31 -61 0
v -30 -61 0
v -29 -62 0
v -30 -62 0
v -30 -61 0
v -29 -61 0
v -28 -62 0
v -29 -62 0
v -29 -61 0
v -28 -61 0
v -27 -62 0
v -28 -62 0
v -28 -61 0
v -27 -61 0
v 0 -62 0
v -1 -62 0
v -1 -61 0
v 0 -61 0
v -30 -63 0
v -31 -63 0
v -31 -62 0
v -30 -62 0
v -29 -63 0
v -30 -63 0
v -30 -62 0
v -29 -62 0
v -28 -63 0
v -29 -63 0
v -29 -62 0
v -28 -62 0
v -27 -63 0
v -28 -63 0
v -28 -62 0
v -27 -62 0
v 0 -63 0
v -1 -63 0
v -1 -62 0
v 0 -62 0
v -30 -64 0
v -31 -64 0
v -31 -63 0
v -30 -63 0
v -29 -64 0
v -30 -64 0
v -30 -63 0
v -29 -63 0
v -28 -64 0
v -29 -64 0
v -29 -63 0
v -28 -63 0
v -27 -64 0
v -28 -64 0
v -28 -63 0
v -27 -63 0
v 0 -64 0
v -1 -64 0
v -1 -63 0
v 0 -63 0
v -30 -65 0
v -31 -65 0
v -31 -64 0
v -30 -64 0
v -29 -65 0
v -30 -65 0
v -30 -64 0
v -29 -64 0
v -28 -65 0
v -29 -65 0
v -29 -64 0
v -28 -64 0
v -27 -65 0
v -28 -65 0
v -28 -64 0
v -27 -64 0
v 0 -65 0
v -1 -65 0
v -1 -64 0
v 0 -64 0
v -30 -66 0
v -31 -66 0
v -31 -65 0
v -30 -65 0
v -29 -66 0
v -30 -66 0
v -30 -65 0
v -29 -65 0
v -28 -66 0
v -29 -66 0
v -29 -65 0
v -28 -65 0
v -27 -66 0
v -28 -66 0
v -28 -65 0
v -27 -65 0
v 0 -66 0
v -1 -66 0
v -1 -65 0
v 0 -65 0
v -30 -67 0
v -31 -67 0
v -31 -66 0
v -30 -66 0
v -29 -67 0
v -30 -67 0
v -30 -66 0
v -29 -66 0
v -28 -67 0
v -29 -67 0
v -29 -66 0
v -28 -66 0
v -27 -67 0
v -28 -67 0
v -28 -66 0
v -27 -66 0
v 0 -67 0
v -1 -67 0
v -1 -66 0
v 0 -66 0
v -30 -68 0
v -31 -68 0
v -31 -67 0
v -30 -67 0
v -29 -68 0
v -30 -68 0
v -30 -67 0
v -29 -67 0
v -28 -68 0
v -29 -68 0
v -29 -67 0
v -28 -67 0
v -27 -68 0
v -28 -68 0
v -28 -67 0
v -27 -67 0
v 0 -68 0
v -1 -68 0
v -1 -67 0
v 0 -67 0
v -30 -69 0
v -31 -69 0
v -31 -68 0
v -30 -68 0
v -29 -69 0
v -30 -69 0
v -30 -68 0
v -29 -68 0
v -28 -69 0
v -29 -69 0
v -29 -68 0
v -28 -68 0
v -27 -69 0
v -28 -69 0
v -28 -68 0
v -27 -68 0
v 0 -69 0
v -1 -69 0
v -1 -68 0
v 0 -68 0
v -30 -70 0
v -31 -70 0
v -31 -69 0
v -30 -69 0
v -29 -70 0
v -30 -70 0
v -30 -69 0
v -29 -69 0
v -28 -70 0
v -29 -70 0
v -29 -69 0
v -28 -69 0
v -27 -70 0
v -28 -70 0
v -28 -69 0
v -27 -69 0
v 0 -70 0
v -1 -70 0
v -1 -69 0
v 0 -69 0
v -30 -71 0
v -31 -71 0
v -31 -70 0
v -30 -70 0
v -29 -71 0
v -30 -71 0
v -30 -70 0
v -29 -70 0
v -28 -71 0
v -29 -71 0
v -29 -70 0
v -28 -70 0
v -27 -71 0
v -28 -71 0
v -28 -70 0
v -27 -70 0
v 0 -71 0
v -1 -71 0
v -1 -70 0
v 0 -70 0
v -30 -72 0
v -31 -72 0
v -31 -71 0
v -30 -71 0
v -29 -72 0
v -30 -72 0
v -30 -71 0
v -29 -71 0
v -28 -72 0
v -29 -72 0
v -29 -71 0
v -28 -71 0
v -27 -72 0
v -28 -72 0
v -28 -71 0
v -27 -71 0
v 0 -72 0
v -1 -72 0
v -1 -71 0
v 0 -71 0
v 0 -73 0
v -1 -73 0
v -1 -72 0
v 0 -72 0
v 0 -74 0
v -1 -74 0
v -1 -73 0
v 0 -73 0
v 0 -75 0
v -1 -75 0
v -1 -74 0
v 0 -74 0

# Texture cooridinates (Count = 28)
vt 0.2458678 0.6140684
vt 0.2623967 0.6140684
vt 0.2623967 0.6444867
vt 0.2458678 0.6444867
vt 0.2809917 0.6140684
vt 0.2975207 0.6140684
vt 0.2975207 0.6444867
vt 0.2809917 0.6444867
vt 0.3161157 0.6140684
vt 0.3326446 0.6140684
vt 0.3326446 0.6444867
vt 0.3161157 0.6444867
vt 0.2634298 0.6140684
vt 0.2799587 0.6140684
vt 0.2799587 0.6444867
vt 0.2634298 0.6444867
vt 0.2985537 0.6140684
vt 0.3150826 0.6140684
vt 0.3150826 0.6444867
vt 0.2985537 0.6444867
vt 0.2283058 0.6140684
vt 0.2448347 0.6140684
vt 0.2448347 0.6444867
vt 0.2283058 0.6444867
vt 0.4039256 0.6140684
vt 0.4204545 0.6140684
vt 0.4204545 0.6444867
vt 0.4039256 0.6444867

# Normal
vn 0 0 -1

# Mesh description
g Town_Test_mesh_0006

# Faces
f 1/1/1 2/2/1 3/3/1 4/4/1
f 5/5/1 6/6/1 7/7/1 8/8/1
f 9/9/1 10/10/1 11/11/1 12/12/1
f 13/13/1 14/14/1 15/15/1 16/16/1
f 17/5/1 18/6/1 19/7/1 20/8/1
f 21/9/1 22/10/1 23/11/1 24/12/1
f 25/17/1 26/18/1 27/19/1 28/20/1
f 29/13/1 30/14/1 31/15/1 32/16/1
f 33/21/1 34/22/1 35/23/1 36/24/1
f 37/5/1 38/6/1 39/7/1 40/8/1
f 41/13/1 42/14/1 43/15/1 44/16/1
f 45/25/1 46/26/1 47/27/1 48/28/1
f 49/1/1 50/2/1 51/3/1 52/4/1
f 53/17/1 54/18/1 55/19/1 56/20/1
f 57/13/1 58/14/1 59/15/1 60/16/1
f 61/25/1 62/26/1 63/27/1 64/28/1
f 65/5/1 66/6/1 67/7/1 68/8/1
f 69/9/1 70/10/1 71/11/1 72/12/1
f 73/21/1 74/22/1 75/23/1 76/24/1
f 77/25/1 78/26/1 79/27/1 80/28/1
f 81/25/1 82/26/1 83/27/1 84/28/1
f 85/21/1 86/22/1 87/23/1 88/24/1
f 89/25/1 90/26/1 91/27/1 92/28/1
f 93/17/1 94/18/1 95/19/1 96/20/1
f 97/9/1 98/10/1 99/11/1 100/12/1
f 101/9/1 102/10/1 103/11/1 104/12/1
f 105/9/1 106/10/1 107/11/1 108/12/1
f 109/5/1 110/6/1 111/7/1 112/8/1
f 113/5/1 114/6/1 115/7/1 116/8/1
f 117/13/1 118/14/1 119/15/1 120/16/1
f 121/13/1 122/14/1 123/15/1 124/16/1
f 125/17/1 126/18/1 127/19/1 128/20/1
f 129/13/1 130/14/1 131/15/1 132/16/1
f 133/21/1 134/22/1 135/23/1 136/24/1
f 137/5/1 138/6/1 139/7/1 140/8/1
f 141/25/1 142/26/1 143/27/1 144/28/1
f 145/1/1 146/2/1 147/3/1 148/4/1
f 149/13/1 150/14/1 151/15/1 152/16/1
f 153/5/1 154/6/1 155/7/1 156/8/1
f 157/13/1 158/14/1 159/15/1 160/16/1
f 161/21/1 162/22/1 163/23/1 164/24/1
f 165/17/1 166/18/1 167/19/1 168/20/1
f 169/21/1 170/22/1 171/23/1 172/24/1
f 173/13/1 174/14/1 175/15/1 176/16/1
f 177/1/1 178/2/1 179/3/1 180/4/1
f 181/5/1 182/6/1 183/7/1 184/8/1
f 185/17/1 186/18/1 187/19/1 188/20/1
f 189/5/1 190/6/1 191/7/1 192/8/1
f 193/21/1 194/22/1 195/23/1 196/24/1
f 197/13/1 198/14/1 199/15/1 200/16/1
f 201/13/1 202/14/1 203/15/1 204/16/1
f 205/17/1 206/18/1 207/19/1 208/20/1
f 209/5/1 210/6/1 211/7/1 212/8/1
f 213/17/1 214/18/1 215/19/1 216/20/1
f 217/25/1 218/26/1 219/27/1 220/28/1
f 221/25/1 222/26/1 223/27/1 224/28/1
f 225/1/1 226/2/1 227/3/1 228/4/1
f 229/17/1 230/18/1 231/19/1 232/20/1
f 233/9/1 234/10/1 235/11/1 236/12/1
f 237/25/1 238/26/1 239/27/1 240/28/1
f 241/5/1 242/6/1 243/7/1 244/8/1
f 245/5/1 246/6/1 247/7/1 248/8/1
f 249/5/1 250/6/1 251/7/1 252/8/1
f 253/13/1 254/14/1 255/15/1 256/16/1
f 257/21/1 258/22/1 259/23/1 260/24/1
f 261/25/1 262/26/1 263/27/1 264/28/1
f 265/21/1 266/22/1 267/23/1 268/24/1
f 269/17/1 270/18/1 271/19/1 272/20/1
f 273/21/1 274/22/1 275/23/1 276/24/1
f 277/21/1 278/22/1 279/23/1 280/24/1
f 281/13/1 282/14/1 283/15/1 284/16/1
f 285/9/1 286/10/1 287/11/1 288/12/1
f 289/25/1 290/26/1 291/27/1 292/28/1
f 293/21/1 294/22/1 295/23/1 296/24/1
f 297/9/1 298/10/1 299/11/1 300/12/1
f 301/21/1 302/22/1 303/23/1 304/24/1
f 305/1/1 306/2/1 307/3/1 308/4/1
f 309/9/1 310/10/1 311/11/1 312/12/1
f 313/21/1 314/22/1 315/23/1 316/24/1
f 317/17/1 318/18/1 319/19/1 320/20/1
f 321/9/1 322/10/1 323/11/1 324/12/1
f 325/5/1 326/6/1 327/7/1 328/8/1
f 329/1/1 330/2/1 331/3/1 332/4/1
f 333/25/1 334/26/1 335/27/1 336/28/1
f 337/17/1 338/18/1 339/19/1 340/20/1
f 341/17/1 342/18/1 343/19/1 344/20/1
f 345/17/1 346/18/1 347/19/1 348/20/1
f 349/25/1 350/26/1 351/27/1 352/28/1
f 353/17/1 354/18/1 355/19/1 356/20/1
f 357/13/1 358/14/1 359/15/1 360/16/1
f 361/21/1 362/22/1 363/23/1 364/24/1
f 365/13/1 366/14/1 367/15/1 368/16/1
f 369/9/1 370/10/1 371/11/1 372/12/1
f 373/13/1 374/14/1 375/15/1 376/16/1
f 377/21/1 378/22/1 379/23/1 380/24/1
f 381/9/1 382/10/1 383/11/1 384/12/1
f 385/9/1 386/10/1 387/11/1 388/12/1
f 389/25/1 390/26/1 391/27/1 392/28/1
f 393/1/1 394/2/1 395/3/1 396/4/1
f 397/21/1 398/22/1 399/23/1 400/24/1
f 401/13/1 402/14/1 403/15/1 404/16/1
f 405/13/1 406/14/1 407/15/1 408/16/1
f 409/17/1 410/18/1 411/19/1 412/20/1
f 413/13/1 414/14/1 415/15/1 416/16/1
f 417/21/1 418/22/1 419/23/1 420/24/1
f 421/21/1 422/22/1 423/23/1 424/24/1
f 425/13/1 426/14/1 427/15/1 428/16/1
f 429/9/1 430/10/1 431/11/1 432/12/1
f 433/25/1 434/26/1 435/27/1 436/28/1
f 437/25/1 438/26/1 439/27/1 440/28/1
f 441/13/1 442/14/1 443/15/1 444/16/1
f 445/17/1 446/18/1 447/19/1 448/20/1
f 449/1/1 450/2/1 451/3/1 452/4/1

